# xmcd
#
# Track frame offsets:
#	150
#	12245
#	27465
#	43695
#	57260
#	69750
#	85732
#	103345
#	114460
#	128897
#	143205
#
# Disc length: 2052
#
# Revision: 1
# Processed by: cddbd v1.5.1PL0 Copyright (c) Steve Scherf et al.
# Submitted via: NeoAudio 9.9.9
# Normalized: r0:TRMNUM
#
DISCID=9308020b
DTITLE=Curtis and Chris Simmons - Back in the Country
DYEAR=2000
DGENRE=Country
TTITLE0=Back in the Country
TTITLE1=Dancing with the Devil
TTITLE2=Helpless in Love
TTITLE3=I'm Gonna Cry
TTITLE4=Baby Please
TTITLE5=Will You Marry Me
TTITLE6=Like a Hurricane
TTITLE7=Just do it
TTITLE8=About You
TTITLE9=In my Dreams
TTITLE10=What He has Done
EXTD=YEAR: 2000
EXTT0=
EXTT1=
EXTT2=
EXTT3=
EXTT4=
EXTT5=
EXTT6=
EXTT7=
EXTT8=
EXTT9=
EXTT10=
PLAYORDER=
